<?xml version="1.0" encoding="UTF-8"?>
<svg width="139" height="37" viewBox="0 0 139 37" fill="none" xmlns="http://www.w3.org/2000/svg">
<g clip-path="url(#clip0_641_1943)">
<path d="M77.8843 29.8487H77.8675C74.1412 29.8035 72.3563 26.926 72.3563 23.1158C72.3563 19.3055 74.4545 16.5863 77.75 16.5863C81.868 16.5863 81.8345 13.0983 81.8345 13.0983C80.3685 12.6574 78.8187 12.42 76.6814 12.42C70.2973 12.42 66.8059 17.146 66.8059 23.1158C66.8059 29.4077 70.1742 34.0151 76.8772 34.0151C79.0593 34.0151 80.6427 33.8172 82.1926 33.331L81.952 28.882C81.04 29.2834 79.3838 29.8374 77.8843 29.843V29.8487ZM130.434 22.1095L138.049 12.8948H131.782L125.437 21.1485H125.359V7.84654C125.359 2.97916 120.044 3.4823 120.044 3.4823V33.5346H125.359V23.5171H125.437L132.258 33.5346H139L130.434 22.1151V22.1095ZM109.161 12.4143C106.666 12.4143 104.008 13.5789 102.777 16.0606C101.624 13.4941 99.6046 12.4143 96.7511 12.4143C94.7704 12.4143 92.3198 13.2792 90.6804 15.7779C89.8915 12.2673 85.6448 12.8948 85.6448 12.8948V33.5346H90.9601V23.5171C90.9601 20.8319 91.3966 16.5863 94.9271 16.5863C97.982 16.5863 97.982 19.3112 97.982 21.2333V33.5346H103.297V23.5171C103.297 20.8319 103.734 16.5863 107.264 16.5863C110.319 16.5863 110.319 19.3112 110.319 21.2333V33.5346H115.635V20.5153C115.635 15.908 114.208 12.42 109.172 12.42L109.161 12.4143ZM49.8471 21.1937C50.0821 18.4293 51.5928 16.3489 54.5638 16.3489C57.5348 16.3489 58.7266 18.5932 58.8888 21.1937H49.8471V21.1937ZM54.2504 12.42C47.9056 12.42 44.7723 17.3495 44.7723 23.3193C44.7723 30.0918 48.7001 34.0151 55.4422 34.0151C58.3013 34.0151 60.517 33.4554 62.4585 32.37C62.4585 32.37 61.5801 28.9951 58.2566 29.7865C57.4732 29.9731 56.5612 30.0861 55.6828 30.0861C52.3873 30.0861 50.0877 28.2036 49.8527 24.8795H63.7118C63.9916 18.0844 61.8263 12.42 54.256 12.42" fill="#173863"/>
<path d="M11.2185 0.571045C11.2185 0.571045 11.2073 0.571045 11.2017 0.576698C6.93264 2.63445 -0.201156 15.3145 0.000268876 20.5833L18.3355 9.90443L11.2185 0.571045Z" fill="#173863"/>
<path d="M33.5545 5.54575C30.0687 2.0747 17.351 -0.853637 12.293 0.231771L22.3139 7.42826L33.5489 5.54575H33.5545Z" fill="#47C988"/>
<path d="M34.1695 6.30322L25.8663 10.7353L35.8984 27.5648C37.258 24.4386 37.2077 10.8484 34.1751 6.30322" fill="#173863"/>
<path d="M17.916 36.9717C23.1027 36.3837 33.2635 31.1715 35.5407 28.1584L24.0651 15.2917L17.916 36.9717Z" fill="#173863"/>
<path d="M0.139893 21.5273C1.42118 26.7169 11.9456 36.333 16.3378 36.9831C16.405 36.9944 16.4833 36.9944 16.5504 37L19.1074 14.2913L0.139893 21.5273Z" fill="#173863"/>
</g>
<defs>
<clipPath id="clip0_641_1943">
<rect width="139" height="37" fill="white"/>
</clipPath>
</defs>
</svg>
